<?xml version="1.0" encoding="utf-8"?>
<!-- Generator: Adobe Illustrator 24.1.1, SVG Export Plug-In . SVG Version: 6.00 Build 0)  -->
<svg version="1.1" id="Capa_1" xmlns="http://www.w3.org/2000/svg" xmlns:xlink="http://www.w3.org/1999/xlink" x="0px" y="0px"
	 viewBox="0 0 648.7 146.2" style="enable-background:new 0 0 648.7 146.2;" xml:space="preserve">
<style>
	svg{
		fill: #f8f8f8;
	}
</style>
<path d="M50.2,137.1c-2,0.2-4,0.5-6,0.8c-1.8,0.2-3.6,0.5-5.5,0.6c-1.7,0.2-2.5-0.5-2.6-2.1s0-3.2,0-5c-0.2,0-0.3-0.1-0.6-0.1
	c-2.5-0.2-2.4-0.2-2.6-2.6c-0.9-8.9-1.9-17.9-2.9-26.8c-0.8-6.9-1.7-13.7-2.6-20.5c-0.1-0.5-0.2-1-0.2-1.5
	c-1.2-3.9-1.5-7.7-0.4-11.7c1.1-4.1,1.4-8.3,2.3-12.3c1-4.2,2.2-8.6,3.6-12.7c1.7-5.2-0.2-9.2-3.6-12.8c-1.5-1.7-3.3-3.1-4.9-4.7
	c-2.2-2.2-2.2-3.6,0.1-5.5c1.9-1.6,4.1-2.7,6.2-4.1c2-1.2,4-2.5,6-3.6c0.6-0.4,1.2-0.8,1.8-1.1c1.9-0.7,4.1-0.3,5.2-2.1
	c1,0.5,1.9,0.7,2.6,1.2c0.8,0.5,1.5,1.2,2.2,1.9c0.3,0.2,0.6,0.5,0.8,0.7c0.2,0.2,0.6,0.2,0.7,0.3c0.3,0.8,0.6,1.8,0.9,2.8
	c1.1-0.2,1.9,0.1,1.4,1.5c-0.1,0.2-0.1,0.4,0,0.4c1.6,0.3,0.3,1.8,0.9,2.6c1.6,0.4,2.4-0.6,3.2-1.7c1.5-2.1,3.4-3.6,6-2.7
	c2.6,0.6,4.5,2.2,5.3,5c0.7,2.3-0.2,4.2-1.9,6c-1.2,1.2-2.5,2.6-3.6,3.9c-0.2,0.2,0,1.2,0.3,1.5c2.1,2.6,4.1,5.2,6.2,7.9
	c8,9.7,16,19.6,23.7,29.5c2.1,2.6,2,4.6,0.1,6.6c-0.9,0.9-1.9,0.5-2.9,0.2c-0.4-0.2-0.8-1.2-0.7-1.7c0.2-1.1,0.6-2.2,1.2-3.1
	c0.4-0.7,1.2-1.1,1.9-1.7C82,58.3,72.2,46.1,62.1,33.9c-0.2,0.6-0.3,0.8-0.2,1c1.3,3.6,0.5,6.6-1.7,9.7c-2.2,3.1-4.1,6.3-6,9.5
	c-0.5,0.9-0.7,2.2-0.7,3.2c0.1,4.3,0.2,8.6,0.3,13c0,0.4,0.1,0.8,0.2,1.2c1.3,1.3,0.9,2.6,0.4,4.2c-0.5,1.4-0.3,2.9-0.5,4.5
	c-0.1,0.8,0.2,1.7-0.2,2.3c-0.8,1.3-0.7,2.6-0.7,4.1c0,1.7-0.2,3.4-0.2,5.1c0.1,1.1,0.6,2.1,0.8,3.1c0.8,5.9,3.6,11.3,3.5,17.5
	c0,1.7,0.6,3.2,0.8,4.9c0.3,2.6,0.7,5.2,0.8,7.9c0.2,2.9,0.2,5.9-0.2,8.6c-0.3,2.2-1.4,4.2-2.3,6.3c-0.7,1.5-2.3,2.1-3.7,1.5
	c-0.8-0.3-1.2-1.7-1.7-2.6C50.4,138.2,50.3,137.7,50.2,137.1z M51.4,126.5c-0.2-0.1-0.6-0.2-0.8-0.2c-2.5-0.8-2.6-1.1-2.6-3.6
	c0-1.2,0.2-2.6-0.1-3.8c-0.5-3.5-1.2-6.9-1.7-10.3c-0.3-1.7-0.7-3.4-1.2-5c-1.2-3.8-2.5-7.5-3.7-11.2c-0.2-0.3-0.2-0.7-0.4-1
	c-0.2,6-0.2,11.7,0.3,17.5c0.5,6.2,1.5,12.3,2.2,18.4c0.4,3.6,0.3,3.8,4,3.7c4.8-0.2,3.9,0.5,4.2-4.1
	C51.6,126.7,51.5,126.6,51.4,126.5z M52.7,26.2c-0.1-1.1-0.2-1.8-0.2-2.6c0-1-1.2-3-1.9-3c-1.7-0.1-3.5,0-5.6,0
	c0.5,1.9,0.8,3.6,1.4,5.4c0.1,0.2,0.3,0.5,0.5,0.7c1.2,0.5,2.6,0.9,4.1,1.5C51.6,27.6,52.2,26.8,52.7,26.2z M38.7,26.1
	c0.2-0.1,0.2-0.1,0.5-0.2c-1.5-4.1,1.5-6.5,3.2-9.5c-0.5-0.4-0.8-0.7-1.2-1.1c0,0.2,0.1,0.3,0.1,0.5c-1.8,1-3.6,2-5.4,2.9
	c-1.5,0.7-2.2,2.1-2.3,3.6c-0.1,0.5,1,1.4,1.7,1.9C36.3,24.8,37.4,25.5,38.7,26.1z"/>
<path d="M536.8,87.7c-2.4,1.7-4.8,3.1-6.9,4.9c-2.8,2.4-3.9,5.7-3.7,9.4c0.3,2.9,1.3,3.9,4.2,3.6c1.7-0.3,3.3-0.9,4.8-1.7
	c1.4-0.8,1.8-1.9,1.5-3.8c-0.8-4.7-0.4-9.3,2-13.5c0.6-1,1.3-1.9,2.3-2.6c2.6-1.7,5.6-0.3,5.3,2.7c-0.3,3.2-1.1,6.3-1.9,9.4
	c-0.3,1.1-1,2-1.7,3.4c5.9,0.4,10.5-2.6,15.5-4.4c0.1,0.2,0.3,0.4,0.3,0.6c-0.6,0.5-1.1,1.1-1.8,1.4c-3.8,1.7-7.6,4-11.6,4.8
	c-4.1,0.8-7.4,2.4-10.9,4.5c-1.5,0.9-3.3,1.4-5.1,1.5c-1.6,0.1-3.2-0.8-5.3-1.4c-2.3,0.6-5.3,1.5-8.4,2.1c-5.8,1.1-9.1-1-10.8-6.8
	c-0.1-0.3-0.3-0.8-0.5-1.3c-2.8,3.6-6.3,6-10.4,7.6c-5,2-9.7,1.7-14.4-1c-0.8-0.5-1.8-0.9-2.6-1.5c-1.8-1.3-3.3-1.5-5.4-0.3
	c-1.3,0.8-3.2,0.8-4.8,1.1c-0.2-0.3-0.3-0.8-0.6-1.1c1.3-1,2.4-2,3.8-3.2c-0.3-0.6-0.8-1.3-1.2-2.2c0.3-0.2,0.6-0.5,0.7-0.4
	c3.4,1.4,5.6-0.6,7.9-2.6c3.7-3.3,7.7-6.1,10-10.6c0.3-0.4,0.6-0.9,1-1.1c0.7-0.3,1.3-0.3,2.1-0.4c0.1,0.7,0.5,1.5,0.3,2
	c-2.7,6.1-0.6,12.4-1.3,18.9c3.7,0.1,6.9-0.2,9.3-2.7c3.2-3.3,7.4-6,5.5-11.8c-1.1,0.1-2.3,0.4-3.5,0.3c-0.6,0-1.1-0.7-1.7-1.1
	c0.4-0.5,0.8-1.1,1.3-1.6c0-0.1,0.2-0.1,0.3-0.1c4.8,0.6,5.7-2.8,6.3-6.4c0.7-3.1,1.5-6.1,2.3-9.2c0.3-1,1-1.9,2-2.7
	c0.5,6.2-2.3,11.7-3,18.4c3.5-0.7,6.8-1.3,10.1-2c0,2.3-1.2,3.5-3.2,3.9c-1.5,0.3-3.2,0.5-4.7,0.3c-2-0.3-2.7,0.5-3.2,2.2
	c-1.1,3.7-1.3,7.2,0.7,10.6c1.3,2.4,3.5,3.9,6.2,3.3c3.2-0.8,6.1-2.4,9.1-3.8c0.4-0.2,0.6-1.3,0.6-1.9c-0.1-5.1,2.1-9.2,5.5-12.7
	C531.7,86.4,534.5,86.1,536.8,87.7z M476.9,101.9c3,3,6.4,3.7,10.5,4c-0.3-4.3-0.7-8.3-1-12.2c-0.3-0.2-0.6-0.3-0.8-0.5
	C482.8,96.1,480,98.8,476.9,101.9z M539.3,98.8c4-2.3,6.3-9.4,4.1-12.6C539.9,88.1,537.8,94.4,539.3,98.8z"/>
<path d="M613.7,94.8c-0.2,0.8-0.1,1.8-0.5,2.6c-3.2,5.9-7.9,10-14.6,11.4c-4.3,0.9-7.5-1.2-10-4.1c-3.1,0.7-6.1,1.5-9,1.9
	c-4.1,0.5-5.9-1.3-5.5-5.4c0.3-3.3,0.9-6.7,1.5-10.7c-3.4,0.7-6.5,1.2-9.5,1.9c-0.5,0.1-0.8,1.3-1.1,2c-1.5,3.3-2.8,6.6-4.5,9.6
	c-0.8,1.3-2.5,2-3.9,2.8c-0.3,0.2-1.4-0.3-1.6-0.7c-0.2-0.4,0.3-1.6,0.5-1.6c4-0.9,4.3-4.5,5.4-7.4c0.5-1.4,0.8-2.8,1.3-4.3
	c-3.8-3.5-4.4-5.5-2.5-8.2c1.6-2.2,4.8-3.2,6.9-2c1.9,1.1,2,2.5,0.3,7.4c2-0.5,3.8-1,5.6-1.4c1.8-0.4,3.5-0.8,5.8-1.3
	c-0.3,2.4-0.4,4.4-0.7,6.4c-0.3,2.6-0.7,5.1-1,7.7c-0.3,2.2,0.9,3.2,2.9,2.9c2.6-0.3,5.2-1,7.9-1.6c-3.2-6.7-0.6-12.2,3-17.4
	c1.7-2.4,4.1-3.8,7.2-4c2-0.1,3.3,0.9,2.8,2.8c-0.6,2.3-1.3,4.7-2.8,6.5c-2,2.8-4.4,5.4-7.1,7.7c-2.3,2-1.4,4.9,1.1,5.9
	c4.6,1.8,9.2,1.3,13-1.5c2.9-2.1,5.3-5,7.8-7.6c0.3-0.3,0.3-0.8,0.4-1.2C613,94.4,613.4,94.6,613.7,94.8z M598.2,84.9
	c-5.3-0.1-10.4,6.9-9,12C593.5,93.7,596.9,90.2,598.2,84.9z M566.1,87.1c-0.8-1-1.5-1.8-2.1-2.5c-0.8,1.1-1.9,2-2.3,3.2
	c-0.2,0.5,1.2,1.5,1.8,2.2C564.2,89.1,565,88.2,566.1,87.1z"/>
<path d="M346.3,74.8c0-12,10.2-22.9,21.5-22.8c11.4,0.1,21.1,10.8,21,23.1c-0.1,11.8-10,22.4-21.1,22.4
	C356,97.6,346.3,87.3,346.3,74.8z M382.1,76c-0.4-4-0.6-7.3-1-10.5c-0.2-1.4-0.6-2.7-1.1-4c-2.2-5.8-6.1-8.5-12.3-8.5
	c-6.3,0-10.5,2.6-12.5,8.6c-2.8,8.7-2.8,17.7-0.1,26.4c1.9,6.3,6.4,9,13.3,8.7c6.3-0.2,10.5-3.4,12-9.6
	C381.3,83.2,381.6,79.2,382.1,76z"/>
<path d="M462.9,83c-3.4-10-6.6-8.5-13.1-8.2c0,6.8,0,13.6,0,20.8c2,0,4,0,6,0c0,0.2,0,0.5,0,0.7c-6.2,0-12.4,0-18.6,0
	c0-0.2,0-0.3,0-0.5c2-0.1,4-0.2,6.1-0.3c0-13.8,0-27.5,0-41.5c-2,0-3.9,0-5.8,0c0-0.2,0-0.4,0-0.6c11.3,0,22.5,0,34,0
	c0,3.2,0,6.5,0,9.9c-0.4-0.2-0.6-0.2-0.7-0.3c-2.1-7.1-7-9.7-14.1-9c-2.3,0.2-4.5,0-7,0c0,6.6,0,12.9,0,20.1c3-0.5,6.4-0.1,8.6-1.6
	c2.1-1.3,3.1-4.5,4.6-6.9C462.9,71.3,462.9,77.2,462.9,83z"/>
<path d="M333.5,53.8c0,3.4,0,7,0,10.7c-0.2,0.1-0.4,0.1-0.5,0.2c-0.3-0.8-0.5-1.7-0.8-2.5c-2-6-6.2-9.2-12.4-9.3
	c-6.4-0.1-10.7,2.7-12.7,8.8c-2.8,8.7-2.7,17.5-0.1,26.2c1.7,5.7,5.6,8.5,11.1,8.8c7.4,0.3,11.8-3.9,11.9-11.3c0-1.3,0-2.5,0-4.2
	c-2.6,0-4.9,0-7.2,0c0-0.2,0-0.5,0-0.7c5.8,0,11.6,0,17.3,0c0,0.1,0.1,0.3,0.1,0.4c-1.3,0.1-2.7,0.3-4.3,0.4c0,4.4,0,8.8,0,12.4
	c-2.5,0.4-4.7,0.4-6.6,1.3c-10,4.5-18.7,2.9-25.3-4.8c-6.8-7.9-7.7-19.2-2.3-27.7c5.5-8.7,16.2-13.3,25.8-8.7
	C329.2,54.4,331.3,53.8,333.5,53.8z"/>
<path d="M199.5,57.5c0,12.6,0,25.2,0,38.1c2.2,0,4.2,0,6.2,0c0,0.2,0,0.5,0,0.7c-4.5,0-8.9,0-13.4,0c0-0.2,0-0.3-0.1-0.5
	c1.9-0.1,3.9-0.2,6-0.4c0-13.7,0-27.4,0-41.4c-1.9-0.1-4-0.2-6-0.3c0-0.2,0-0.4,0-0.6c4,0,8.1-0.1,12.1,0.1c0.6,0,1.2,1.2,1.7,1.9
	c6,9.6,12,19.2,17.9,28.9c0.3,0.5,0.6,0.9,1.3,2c0-11,0-21.4,0-32.1c-1.9,0-3.8,0-5.7,0c0-0.2,0-0.4,0-0.6c4.4,0,8.7,0,13.1,0
	c0,0.1,0,0.3,0,0.4c-1.9,0-3.7,0-6.2,0c0,14.8,0,29.1,0,43.5c-0.4,0.1-0.7,0.2-1.1,0.3c-8.4-13.4-16.9-26.9-25.4-40.3
	C199.8,57.4,199.6,57.4,199.5,57.5z"/>
<path d="M254.2,51.9c0.4,0.8,0.8,1.5,1.1,2.3c4.7,12.4,9.5,24.9,14.1,37.4c1,2.9,2.2,4.8,5.6,4.1c0.3-0.1,0.6,0.2,0.9,0.7
	c-5.9,0-11.8,0-17.7,0c0-0.2,0-0.4,0-0.6c1.9,0,3.7,0,6.3,0c-2.2-5.8-4.1-11.1-6.2-16.2c-0.2-0.5-1.3-0.8-2-0.8
	c-3.6-0.1-7.2-0.1-10.7,0c-0.7,0-1.8,0.6-2.1,1.1c-2,5.1-3.9,10.2-6,15.7c2.3,0,4.2,0,6.1,0c0,0.2,0,0.4,0,0.7c-4,0-8,0-12.1,0
	c0.2-0.2,0.4-0.6,0.5-0.6c4,0.8,5.1-1.7,6.2-4.9c4.4-12.1,9.1-24.2,13.6-36.3c0.4-1,0.9-1.9,1.3-2.8
	C253.6,51.9,253.9,51.9,254.2,51.9z M250.9,60.2c-2.4,6.3-4.4,11.7-6.6,17.5c4.5,0,8.7,0,13.2,0C255.3,71.9,253.3,66.4,250.9,60.2z"
	/>
<path d="M110.5,95.5c0-13.8,0-27.5,0-41.5c-2.2,0-4.2,0-6.2,0c0-0.2,0-0.4,0-0.6c6.2,0,12.3,0,18.5,0c0,0.1,0,0.3,0.1,0.4
	c-1.9,0.1-3.8,0.2-5.9,0.4c0,13.8,0,27.5,0,41.8c5.1-0.3,10.3,0,15.1-1.1c5.4-1.2,6.8-6.6,9-11c0,4.1,0,8.2,0,12.6
	c-12.2,0-24.5,0-36.7,0c0-0.2,0-0.3-0.1-0.5C106.2,95.8,108.3,95.6,110.5,95.5z"/>
<path d="M395.2,95.9c2-0.1,4-0.2,6.1-0.3c0-13.8,0-27.5,0-41.4c-2.1-0.1-4.1-0.2-6.1-0.3c0-0.2,0-0.3,0-0.5c6.1,0,12.3,0,18.4,0
	c0,0.2,0,0.3,0,0.5c-1.9,0.1-3.7,0.2-5.9,0.3c0,13.8,0,27.4,0,41.8c5-0.3,10.1,0.1,14.9-0.9c5.4-1.2,6.9-6.6,9.1-11
	c0,4.1,0,8.2,0,12.5c-12.2,0-24.4,0-36.5,0C395.2,96.2,395.2,96,395.2,95.9z"/>
<path d="M152.1,53.8c-2.4,0-4.3,0-6.2,0c0-0.2,0-0.4,0-0.6c6.2,0,12.4,0,18.6,0c0,0.2,0,0.3,0,0.5c-2,0.1-4,0.2-6.1,0.3
	c-0.1,0.9-0.2,1.6-0.2,2.4c0,8.9,0,17.9,0,26.8c0,0.9,0.1,1.8,0.1,2.7c0.6,7.3,3.5,10.5,9.8,10.6c7.3,0.2,12.8-3.9,13-10.7
	c0.4-10.5,0.1-21.1,0.1-32c-2.1,0-4.1,0-6.1,0c0-0.2,0-0.4,0-0.6c4.5,0,9,0,13.5,0c0,0.2,0,0.3,0,0.5c-1.9,0.1-3.9,0.2-6.3,0.3
	c0,1.3,0,2.4,0,3.6c0,8.3,0,16.7,0,25.1c0,5.9-1.6,11.1-7.5,13.4c-6.4,2.5-13,2.4-18.7-2c-3.5-2.7-4.1-6.9-4.2-11.1
	c0-8.3,0-16.5,0-24.8C152.1,57,152.1,55.7,152.1,53.8z"/>
</svg>
