<?xml version="1.0" encoding="utf-8"?>
<!-- Generator: Adobe Illustrator 24.1.1, SVG Export Plug-In . SVG Version: 6.00 Build 0)  -->
<svg version="1.1" id="Capa_1" xmlns="http://www.w3.org/2000/svg" xmlns:xlink="http://www.w3.org/1999/xlink" x="0px" y="0px"
	 viewBox="0 0 512 512" style="enable-background:new 0 0 512 512;" xml:space="preserve">
<g>
	<path d="M218,9.5c7.5,2.2,15.4,3.4,22.3,6.7c29.2,13.9,44.4,37.4,44.6,69.9c0.3,52.8,0.1,105.7,0.1,158.5c0,1.8,0,3.6,0,5.7
		c10,0,19.6,0,30,0c0-1.6,0-3.3,0-5.1c0-33.2-0.1-66.3,0-99.5c0.1-37.1,24.2-67,60.1-74.6c20.1-4.2,37.9-0.3,50.9,16.8
		c10,13.3,11.7,28.3,5.5,43.5c-6.1,15-17.6,25.2-33.9,27c-14.8,1.6-29.9,0.9-44.9,1.1c-2.3,0-4.6,0-7.3,0c0,30.3,0,60.3,0,91
		c4.6,0,9.2-0.1,13.8,0c9.5,0.2,15.6,6.2,15.8,15.7c0.1,4.6,0,9.2,0,14.3c14.6,0,28.7,0,42.8,0c10.8,0,20.7,2.7,29.4,9.4
		c10.1,7.9,16.6,18.1,17.2,30.9c0.5,11.7,0.1,23.7-1.8,35.2c-1.6,9.9-8.1,17.4-16.9,23c-21.6,13.5-42.9,27.6-64.3,41.3
		c-4.1,2.6-8.2,4.8-6,11c-73.5,0-146.5,0-219.8,0c-3.7-30.1-7.4-60.2-11.2-90.5c76.9,0,153.5,0,230.5,0c0,15.7,0,31.3,0,47.7
		c1.9-1,3.2-1.5,4.3-2.3c16.2-10.2,32.3-20.5,48.6-30.6c5.1-3.1,7.3-7.6,7.3-13.3c0-5,0-10,0-15c-0.1-10.7-6-16.7-16.8-16.7
		c-45,0-90,0-135,0c-45.5,0-91,0-136.5,0c-2,0-3.9,0-6.2,0c-1.5-12.3-3-24.2-4.5-36c-0.3-2.3-0.7-4.6-0.9-6.9
		c-0.7-9.7,5.6-16.7,15.3-17c4.6-0.1,9.3,0,14.2,0c0-20.4,0-40.5,0-61c-14.1,0-28.1,0-42,0c-9,0-17.4-1.8-25.4-6.3
		c-16.2-9.2-25-28.7-21.3-47.9c3.4-17.8,19.3-32.7,37.2-35.1c37.7-4.9,75.5,24.1,80.7,62.1c0.7,5.1,1,10.3,1,15.4
		c0.1,24,0,48,0,72.3c19.9,0,39.7,0,59.7,0c0-50,0-100.1,0-150.6c-14.1,0-28.1,0-42,0c-8.8,0-17.1-1.7-24.9-6
		c-16.5-9.2-25.1-27.8-21.8-47.6c2.9-17.2,18.3-32.4,35.7-35.4c1.1-0.2,2.2-0.6,3.3-0.9C209.3,9.5,213.7,9.5,218,9.5z"/>
	<path d="M198.8,502c-7.9-2.1-15.6-4.3-22.1-9.7c-8.3-6.8-14.1-15.1-16-25.7c-1.5-8-2.5-16-3.7-24.4c72.2,0,143.7,0,215.5,0
		c1.8,19.9-0.5,38.5-18.3,50.8c-6.2,4.3-14.2,6.1-21.3,9C288.1,502,243.4,502,198.8,502z"/>
	<path d="M92,502c-9-2-17.4-5.1-24.6-11.2c-14.3-12.2-19.4-33.9-11.7-51.4c7.9-18.2,27.3-29.5,46.3-26.9
		c20.2,2.7,36.3,17.6,39.2,36.4c3.3,21.3-6.6,40.2-25.9,49.1c-4.2,1.9-8.8,2.7-13.2,4.1C98.7,502,95.3,502,92,502z"/>
</g>
</svg>
