<?xml version="1.0" encoding="utf-8"?>
<!-- Generator: Adobe Illustrator 24.1.1, SVG Export Plug-In . SVG Version: 6.00 Build 0)  -->
<svg version="1.1" id="Capa_1" xmlns="http://www.w3.org/2000/svg" xmlns:xlink="http://www.w3.org/1999/xlink" x="0px" y="0px"
	 viewBox="0 0 440.6 512" style="enable-background:new 0 0 440.6 512;" xml:space="preserve">
<g>
	<path d="M179.5,9.7c7.7,2.3,15.9,3.5,23,6.9c30.1,14.3,45.7,38.5,45.9,72c0.3,54.4,0.1,108.9,0.1,163.2c0,1.9,0,3.7,0,5.9
		c10.3,0,20.2,0,30.9,0c0-1.6,0-3.4,0-5.3c0-34.2-0.1-68.3,0-102.5c0.1-38.2,24.9-69,61.9-76.8c20.7-4.3,39-0.3,52.4,17.3
		c10.3,13.7,12.1,29.1,5.7,44.8c-6.3,15.4-18.1,26-34.9,27.8c-15.2,1.6-30.8,0.9-46.2,1.1c-2.4,0-4.7,0-7.5,0c0,31.2,0,62.1,0,93.7
		c4.7,0,9.5-0.1,14.2,0c9.8,0.2,16.1,6.4,16.3,16.2c0.1,4.7,0,9.5,0,14.7c15,0,29.6,0,44.1,0c11.1,0,21.3,2.8,30.3,9.7
		c10.4,8.1,17.1,18.6,17.7,31.8c0.5,12.1,0.1,24.4-1.9,36.3c-1.6,10.2-8.3,17.9-17.4,23.7c-22.2,13.9-44.2,28.4-66.2,42.5
		c-4.2,2.7-8.4,4.9-6.2,11.3c-75.7,0-150.9,0-226.4,0c-3.8-31-7.6-62-11.5-93.2c79.2,0,158.1,0,237.4,0c0,16.2,0,32.2,0,49.1
		c2-1,3.3-1.5,4.4-2.4c16.7-10.5,33.3-21.1,50.1-31.5c5.3-3.2,7.5-7.8,7.5-13.7c0-5.1,0-10.3,0-15.4c-0.1-11-6.2-17.2-17.3-17.2
		c-46.3,0-92.7,0-139,0c-46.9,0-93.7,0-140.6,0c-2.1,0-4,0-6.4,0c-1.5-12.7-3.1-24.9-4.6-37.1c-0.3-2.4-0.7-4.7-0.9-7.1
		c-0.7-10,5.8-17.2,15.8-17.5c4.7-0.1,9.6,0,14.6,0c0-21,0-41.7,0-62.8c-14.5,0-28.9,0-43.3,0c-9.3,0-17.9-1.9-26.2-6.5
		c-16.7-9.5-25.7-29.6-21.9-49.3c3.5-18.3,19.9-33.7,38.3-36.2c38.8-5,77.8,24.8,83.1,64c0.7,5.3,1,10.6,1,15.9
		c0.1,24.7,0,49.4,0,74.5c20.5,0,40.9,0,61.5,0c0-51.5,0-103.1,0-155.1c-14.5,0-28.9,0-43.3,0c-9.1,0-17.6-1.8-25.6-6.2
		c-17-9.5-25.9-28.6-22.5-49c3-17.7,18.8-33.4,36.8-36.5c1.1-0.2,2.3-0.6,3.4-0.9C170.6,9.7,175.1,9.7,179.5,9.7z"/>
	<path d="M159.1,505.7c-8.2-2.2-16.3-4.4-23-10c-8.7-7-14.7-15.6-16.7-26.5c-1.6-8.2-2.6-16.5-3.9-25.1c75.3,0,149.8,0,224.6,0
		c1.9,20.5-0.5,39.7-19.1,52.3c-6.5,4.4-14.8,6.3-22.2,9.3C252.1,505.7,205.5,505.7,159.1,505.7z"/>
	<path d="M49.7,505.6c-9.3-2.1-17.9-5.3-25.3-11.5c-14.7-12.6-20-34.9-12.1-52.9c8.1-18.7,28.1-30.4,47.7-27.7
		c20.8,2.8,37.4,18.1,40.4,37.5c3.4,21.9-6.8,41.4-26.7,50.6c-4.3,2-9.1,2.8-13.6,4.2C56.6,505.6,53.1,505.6,49.7,505.6z"/>
</g>
</svg>
