<?xml version="1.0" encoding="utf-8"?>
<!-- Generator: Adobe Illustrator 24.1.1, SVG Export Plug-In . SVG Version: 6.00 Build 0)  -->
<svg version="1.1" id="Capa_1" xmlns="http://www.w3.org/2000/svg" xmlns:xlink="http://www.w3.org/1999/xlink" x="0px" y="0px"
	 viewBox="0 0 636 512" style="enable-background:new 0 0 636 512;" xml:space="preserve">
<g>
	<path d="M36.1,498.9c-9.6-5.9-17.2-13.6-23.2-23.1C6.1,470.1,5.3,462,4.7,454c-0.3-4.6,0.1-9.2-0.1-13.7c-0.1-2.9,0.8-4.4,3.9-4
		c0.4,0,0.8,0,1.1,0c34.9-1.3,69.8-1,104.8-1.1c2.7,0,5.4,0.3,7.9-0.7c3.9-1.2,6-3.9,6.1-7.9c0.1-10,0.9-19.9-0.3-29.9
		c-1.1-4-4.3-5.5-8-6.2c-28.8-0.1-57.6-0.3-86.4-0.1c-7.8,0.1-15.6,0.2-23.5,0c-3.8-0.1-5.8-1.5-5.7-5.9c0.3-12.4,0.3-24.8,0-37.2
		c-0.1-4.6,1.8-6.2,5.9-6.2c7.6-0.1,15.3-0.1,22.9,0c29,0.3,58,0,87-0.1c3.8-0.7,7.3-2,7.9-6.6c1-9.7,0.4-19.5-0.1-29.2
		c-0.2-5.6-3.1-8-9.6-8.5c-7.8-0.6-15.6-0.3-23.5-0.4c-9.7-0.1-19.5-0.3-29.2,0c-19.1,0.5-38.1-1.8-57.1-1.1
		c-2.2,0.1-4.2,0.1-4.1-3.1c0.1-11.1,0-22.1,0-33.2c0-1.6,0.9-2.9,1.4-4.3c2.9-11.4,8.5-21.2,16.5-29.8c2.3-5.7,8.1-7.6,12.3-11.1
		c1-0.6,2-1.2,3-1.7c7.9-4.4,16.4-6.3,25.3-7.1c11.9-0.8,23.2,2.3,34.7,4.4c0.6,0.1,1.3,0.2,1.9,0.2c10.2,2,20.4,4,30.7,5.8
		c10.2,2.1,20.5,4,30.7,5.7c4.6,0.8,9.2,1.9,13.8,2.7c6.1,1.2,12.3,2.3,18.4,3.4c10.3,2,20.5,4.1,30.8,5.7c10.3,2,20.6,4.1,30.9,5.7
		c9.9,2.3,19.9,3.7,29.9,5.7c11.2,2.3,22.4,4,33.5,6.4c8,1.4,16,2.8,24,4.5c2.5,0.3,4.8,1.4,7.3,1.3c10.6,2,21.2,3.9,31.7,5.9
		c10.3,1.9,20.5,4,30.8,5.7c10,2.1,20.1,3.9,30.2,5.6c0.6,0.1,1.2,0.2,1.7,0.3c15.6,3.9,15.6,3.9,22.9-10.7c1.3-2.6,2.7-5.1,3.6-7.8
		c1.2-2.8,2.6-5.5,3.9-8.3c3.8-7.7,8.1-15.1,11.1-23.2c4.6-9.7,10-19,14-29c0.5-1,1-1.9,1.5-2.9c1.9-3.5,3.6-7.1,5.4-10.8
		c3.6-6.5,6.1-13.5,9.4-20.1c5.5-10,9.8-20.4,14.8-30.6c2.1-3.7,3.9-7.6,5.8-11.5c0.5-1,1-1.9,1.4-2.9c2.4-5.8,5.1-11.4,7.9-17
		c5.4-10,9.4-20.7,14.8-30.8c3.5-6,5.5-12.7,8.8-18.7c2.2-4.1,4.3-8.3,6.2-12.5c3.7-7.9,7.2-15.9,11.3-23.6c2.2-4.2,5.1-7.5,10.2-8
		c11.6-1.8,20.7,4.3,29.4,10.1c7,4.7,6,12.4,3.9,19.7c-0.1,3.5-1.6,6.6-3.2,9.5c-4.2,7.4-6.7,15.6-12.1,22.4
		c-5.4,10.1-10.4,20.4-14.9,31c0.2,0.8,0.2,1.7-0.1,2.5c-4.4,9.7-9.7,19-13.6,28.9c-5.7,10.4-10.4,21.3-15.5,32.1
		c-0.2,0.5-0.5,1-0.7,1.5c-5.5,9.9-9.6,20.5-14.7,30.6c-5.4,9.9-9.3,20.5-14.7,30.4c-0.8,1.4-1.5,2.8-2.2,4.2
		c-0.6,1.2-1.1,2.4-1.7,3.5c-3.5,7.7-7,15.5-10.9,23c-0.2,0.5-0.5,1-0.7,1.4c-5,9.8-9.2,20-14.4,29.8c-0.5,0.9-1,1.9-1.5,2.8
		c-0.9,1.6-1.6,3.3-2.3,5c-3.6,8.9-8.5,17.2-12.4,26c-4.1,9.7-9.2,19-13.8,28.5c-2,3.9-3.3,8.1-5.5,12c-3.2,6.4-6.6,12.7-9.5,19.2
		c-4.7,11.3-11.1,21.8-15.6,33.1c-1.7,3.3-3.4,6.7-5,10.1c-0.5,1-0.9,1.9-1.4,2.9c-3.2,5.9-5.9,12-8.5,18.2c-0.2,0.5-0.5,1-0.7,1.5
		c-5.4,9.4-9,19.8-14.6,29.2c-2.2,3.7-3.9,7.8-8,9.9c-10.3,11-22.4,19-37.6,21.5c-2.4,0.4-4.9,0.7-7.4,0.7c-101.3,0-202.6,0-303.9,0
		c-1.7,0-3.4-0.1-5.2-0.1c-5.4-1.1-11.2-0.6-16.3-3.4C39.7,502,37.4,501.1,36.1,498.9z"/>
</g>
</svg>
