<?xml version="1.0" encoding="utf-8"?>
<!-- Generator: Adobe Illustrator 24.1.1, SVG Export Plug-In . SVG Version: 6.00 Build 0)  -->
<svg version="1.1" id="Capa_1" xmlns="http://www.w3.org/2000/svg" xmlns:xlink="http://www.w3.org/1999/xlink" x="0px" y="0px"
	 viewBox="0 0 600 512" style="enable-background:new 0 0 600 512;" xml:space="preserve">
<path d="M593.5,371.9c-2.6,4.8-4.5,10.1-7.8,14.4c-5.5,7.2-13.4,10.7-22.5,10.7c-20.1,0.2-40.1-0.1-60.2,0.2c-3.9,0-4.7-2.4-5.9-4.9
	c-8.3-17.3-20.6-31-37.2-40.9C419,327,366,339.2,339.5,378.9c-9.4,14.2-14.4,29.8-15.4,47c-50.4,0-100.6,0-150.7,0
	c-4.7-81.1-98.8-113.6-153.6-63.1c1.8-4.2,3.1-7.3,4.4-10.4c8.5-19.8,17.2-39.5,25.6-59.4c7.1-16.7,19.4-26.1,37.4-27.8
	c4.2-0.4,4.2-3.4,5-5.9c13.9-43.8,27.8-87.6,41.7-131.5c2-6.2,3.9-12.3,6-19c-3.2-1.1-6.3-1.8-9.2-3.1
	c-17.2-7.4-27.4-20.5-29.6-39.1c-2.4-20,1.7-38.1,18.7-51.2c9.3-7.2,20-9.9,31.6-9.9c65.2,0.1,130.3,0,195.5,0
	c33.2,0,66.5-0.1,99.7,0c24.8,0.1,43.5,13.6,48.7,37c4.9,21.9,1.6,42.3-17.3,57.5c-1.3,1-2.5,3.1-2.5,4.6c-0.1,34-0.1,68-0.1,102.8
	c2.3,0,4.4,0,6.4,0c24.1,0,48.2,0.6,72.2-0.2c19.1-0.7,33.2,5.1,39.5,24.4C593.5,278.6,593.5,325.2,593.5,371.9z M430.6,110.2
	c-2-0.1-3.5-0.3-5-0.3c-78.3,0-156.7,0-235-0.1c-4.1,0-5.5,1.6-6.6,5.2c-14.3,45.5-28.7,90.9-43.1,136.4c-0.5,1.6-0.9,3.4-1.3,5.2
	c14.1-14.1,27.8-27.8,42.7-42.7c-5-4.4-10.3-8.9-14.7-12.9c3.4-3.9,6.4-7.3,9.5-10.8c14.4,13.6,28.5,26.9,41.8,39.4
	c-3.4,3.7-6.4,7-10.3,11.3c-4.6-4.9-9.2-10-13.1-14.2c-12.9,13-25.5,25.6-38.3,38.4c23.6,0,47.5,0,71.8,0c0,2.8,0,4.8,0,6.9
	c0,19.3,0,38.6,0,57.9c0,14.8,7.7,22.6,22.6,22.6c23.3,0.1,46.6,0,69.9,0c15.5,0,23.1-7.7,23.1-23.4c0-19.3,0-38.6,0-57.9
	c0-2,0-4,0-6.4c10.1,0,19.2,0,29.1,0c0-19.6,0-38.7,0-58.5c19.4,0,38.1,0,56.9,0C430.6,174.2,430.6,142.5,430.6,110.2z"/>
<path d="M82.5,506.3c-42-0.1-76.2-34.5-76.1-76.4c0.2-41.8,34.8-76.3,76.5-76c42.4,0.3,76,34.1,75.9,76.4
	C158.9,472.2,124.5,506.4,82.5,506.3z M114.3,428.6c-0.1-17.6-14.2-31.6-31.8-31.5c-17.6,0.1-31.5,14.1-31.5,31.8
	c0,18,14.1,31.9,32.1,31.6C100.9,460.2,114.4,446.4,114.3,428.6z"/>
<path d="M414.2,506.3c-42-0.1-76.4-34.6-76.2-76.3c0.2-41.9,34.7-76.2,76.5-76.1c42.4,0.1,75.9,33.8,75.8,76.3
	C490.4,472.3,456.3,506.4,414.2,506.3z M446,428.8c-0.1-17.7-13.9-31.6-31.5-31.7c-17.5,0-31.7,14.1-31.8,31.6
	c-0.1,17.8,14.1,32,32,31.8C432.4,460.4,446,446.6,446,428.8z"/>
</svg>
